<svg width="38" height="38" viewBox="0 0 38 38" fill="none" xmlns="http://www.w3.org/2000/svg">
<path d="M20.5833 14.25H17.4167V11.0833H20.5833M20.5833 26.9167H17.4167V17.4167H20.5833M19 3.16666C16.9207 3.16666 14.8618 3.5762 12.9408 4.3719C11.0199 5.1676 9.27441 6.33387 7.80415 7.80413C4.83482 10.7735 3.16667 14.8007 3.16667 19C3.16667 23.1992 4.83482 27.2265 7.80415 30.1958C9.27441 31.6661 11.0199 32.8324 12.9408 33.6281C14.8618 34.4238 16.9207 34.8333 19 34.8333C23.1993 34.8333 27.2265 33.1652 30.1959 30.1958C33.1652 27.2265 34.8333 23.1992 34.8333 19C34.8333 16.9207 34.4238 14.8618 33.6281 12.9408C32.8324 11.0198 31.6661 9.27439 30.1959 7.80413C28.7256 6.33387 26.9801 5.1676 25.0592 4.3719C23.1382 3.5762 21.0793 3.16666 19 3.16666Z" fill="#F7F7F7"/>
</svg>
