<svg width="38" height="38" viewBox="0 0 38 38" fill="none" xmlns="http://www.w3.org/2000/svg">
<path d="M32.0625 19.3206C32.0684 19.1069 32.0684 18.8931 32.0625 18.6794L34.2772 15.9125C34.3933 15.7672 34.4737 15.5967 34.5118 15.4147C34.55 15.2327 34.5449 15.0442 34.4969 14.8645C34.1332 13.5 33.5901 12.1898 32.8819 10.9681C32.7891 10.8082 32.6602 10.6722 32.5056 10.571C32.351 10.4697 32.1749 10.4059 31.9912 10.3847L28.4703 9.99282C28.3239 9.83844 28.1754 9.69001 28.025 9.54751L27.6094 6.01766C27.588 5.83392 27.524 5.6577 27.4224 5.50308C27.3209 5.34845 27.1846 5.21968 27.0245 5.12704C25.8029 4.41936 24.4926 3.87727 23.128 3.51501C22.9484 3.467 22.7599 3.46187 22.5779 3.50003C22.3959 3.53819 22.2254 3.61857 22.0801 3.73469L19.3206 5.93751H18.6794L15.9125 3.72727C15.7672 3.61115 15.5967 3.53077 15.4147 3.49261C15.2327 3.45445 15.0442 3.45958 14.8645 3.50758C13.5 3.8713 12.1898 4.41436 10.968 5.12258C10.8082 5.2154 10.6722 5.34424 10.571 5.49886C10.4697 5.65348 10.4059 5.8296 10.3847 6.01321L9.99281 9.54008C9.83844 9.68753 9.69 9.83597 9.5475 9.9854L6.01766 10.3906C5.83391 10.412 5.6577 10.476 5.50307 10.5776C5.34844 10.6791 5.21967 10.8154 5.12703 10.9755C4.4195 12.1974 3.87694 13.5076 3.51351 14.872C3.46571 15.0518 3.46082 15.2403 3.49924 15.4223C3.53766 15.6043 3.61831 15.7748 3.73469 15.9199L5.9375 18.6794V19.3206L3.72726 22.0875C3.61114 22.2328 3.53076 22.4033 3.4926 22.5853C3.45444 22.7674 3.45957 22.9558 3.50758 23.1355C3.87129 24.5 4.41436 25.8102 5.12258 27.032C5.21539 27.1918 5.34423 27.3278 5.49885 27.429C5.65347 27.5303 5.82959 27.5941 6.0132 27.6153L9.53414 28.0072C9.68159 28.1616 9.83003 28.31 9.97945 28.4525L10.3906 31.9824C10.412 32.1661 10.476 32.3423 10.5776 32.4969C10.6791 32.6516 10.8154 32.7803 10.9755 32.873C12.1974 33.5805 13.5076 34.1231 14.872 34.4865C15.0517 34.5343 15.2403 34.5392 15.4223 34.5008C15.6043 34.4623 15.7748 34.3817 15.9199 34.2653L18.6794 32.0625C18.8931 32.0684 19.1069 32.0684 19.3206 32.0625L22.0875 34.2772C22.2328 34.3933 22.4033 34.4737 22.5853 34.5119C22.7673 34.55 22.9558 34.5449 23.1355 34.4969C24.5002 34.1338 25.8105 33.5907 27.032 32.8819C27.1918 32.7891 27.3278 32.6602 27.429 32.5056C27.5303 32.351 27.5941 32.1749 27.6153 31.9913L28.0072 28.4703C28.1616 28.3239 28.31 28.1754 28.4525 28.025L31.9823 27.6094C32.1661 27.588 32.3423 27.524 32.4969 27.4225C32.6516 27.3209 32.7803 27.1847 32.873 27.0245C33.5805 25.8027 34.1231 24.4924 34.4865 23.1281C34.5343 22.9483 34.5392 22.7597 34.5008 22.5777C34.4623 22.3957 34.3817 22.2252 34.2653 22.0801L32.0625 19.3206ZM19 24.9375C17.8257 24.9375 16.6777 24.5893 15.7013 23.9369C14.7249 23.2844 13.9639 22.3571 13.5145 21.2722C13.0651 20.1873 12.9475 18.9934 13.1766 17.8417C13.4057 16.6899 13.9712 15.6319 14.8016 14.8016C15.6319 13.9712 16.6899 13.4057 17.8417 13.1766C18.9934 12.9475 20.1872 13.0651 21.2722 13.5145C22.3571 13.9639 23.2844 14.7249 23.9369 15.7013C24.5893 16.6777 24.9375 17.8257 24.9375 19C24.9375 20.5747 24.3119 22.085 23.1984 23.1985C22.0849 24.312 20.5747 24.9375 19 24.9375Z" fill="#F7F7F7"/>
</svg>
