<svg width="35" height="35" viewBox="0 0 35 35" fill="none" xmlns="http://www.w3.org/2000/svg">
<path d="M17.5 2.91675C15.5849 2.91675 13.6885 3.29396 11.9192 4.02684C10.1499 4.75972 8.54222 5.83392 7.18803 7.18811C4.45313 9.92301 2.91667 13.6323 2.91667 17.5001C2.91667 23.9459 7.10209 29.4147 12.8917 31.3542C13.6208 31.4709 13.8542 31.0188 13.8542 30.6251V28.1605C9.81459 29.0355 8.95417 26.2063 8.95417 26.2063C8.28334 24.5147 7.33542 24.0626 7.33542 24.0626C6.00834 23.1584 7.4375 23.1876 7.4375 23.1876C8.89584 23.2897 9.66875 24.6897 9.66875 24.6897C10.9375 26.9063 13.0813 26.2501 13.9125 25.9001C14.0438 24.9522 14.4229 24.3105 14.8313 23.9459C11.5938 23.5813 8.19584 22.3272 8.19584 16.7709C8.19584 15.1522 8.75 13.8542 9.69792 12.8188C9.55209 12.4542 9.04167 10.9376 9.84375 8.96883C9.84375 8.96883 11.0688 8.57508 13.8542 10.4563C15.0063 10.1355 16.2604 9.97508 17.5 9.97508C18.7396 9.97508 19.9938 10.1355 21.1458 10.4563C23.9313 8.57508 25.1563 8.96883 25.1563 8.96883C25.9583 10.9376 25.4479 12.4542 25.3021 12.8188C26.25 13.8542 26.8042 15.1522 26.8042 16.7709C26.8042 22.3417 23.3917 23.5667 20.1396 23.9313C20.6646 24.3834 21.1458 25.273 21.1458 26.6292V30.6251C21.1458 31.0188 21.3792 31.4855 22.1229 31.3542C27.9125 29.4001 32.0833 23.9459 32.0833 17.5001C32.0833 15.585 31.7061 13.6886 30.9732 11.9193C30.2404 10.1499 29.1662 8.54229 27.812 7.18811C26.4578 5.83392 24.8501 4.75972 23.0808 4.02684C21.3115 3.29396 19.4151 2.91675 17.5 2.91675Z" fill="#F7F7F7"/>
</svg>
