<svg width="35" height="35" viewBox="0 0 35 35" fill="none" xmlns="http://www.w3.org/2000/svg">
<path d="M29.1667 26.2499H26.25V13.4895L17.5 18.9583L8.75 13.4895V26.2499H5.83334V8.74992H7.58334L17.5 14.9478L27.4167 8.74992H29.1667M29.1667 5.83325H5.83334C4.21459 5.83325 2.91667 7.13117 2.91667 8.74992V26.2499C2.91667 27.0235 3.22396 27.7653 3.77094 28.3123C4.31792 28.8593 5.05979 29.1666 5.83334 29.1666H29.1667C29.9402 29.1666 30.6821 28.8593 31.2291 28.3123C31.776 27.7653 32.0833 27.0235 32.0833 26.2499V8.74992C32.0833 7.97637 31.776 7.2345 31.2291 6.68752C30.6821 6.14054 29.9402 5.83325 29.1667 5.83325Z" fill="#F7F7F7"/>
</svg>
