<svg width="35" height="35" viewBox="0 0 35 35" fill="none" xmlns="http://www.w3.org/2000/svg">
<path d="M18.9992 2.91675C20.6398 2.92112 21.4725 2.92987 22.1915 2.95029L22.4744 2.9605C22.801 2.97216 23.1233 2.98675 23.5127 3.00425C25.0644 3.07716 26.1231 3.32216 27.0521 3.68237C28.0146 4.05279 28.8254 4.55446 29.6363 5.36383C30.3778 6.09285 30.9516 6.97469 31.3177 7.948C31.6779 8.87696 31.9229 9.93571 31.9958 11.4888C32.0133 11.8767 32.0279 12.199 32.0396 12.5272L32.0483 12.8101C32.0702 13.5276 32.079 14.3603 32.0819 16.0009L32.0833 17.0888V18.9992C32.0869 20.063 32.0757 21.1267 32.0498 22.1901L32.041 22.473C32.0294 22.8011 32.0148 23.1234 31.9973 23.5113C31.9244 25.0645 31.6765 26.1217 31.3177 27.0522C30.9527 28.026 30.3787 28.9081 29.6363 29.6363C28.907 30.3776 28.0252 30.9514 27.0521 31.3178C26.1231 31.678 25.0644 31.923 23.5127 31.9959C23.1667 32.0122 22.8206 32.0268 22.4744 32.0397L22.1915 32.0484C21.4725 32.0688 20.6398 32.079 18.9992 32.082L17.9112 32.0834H16.0023C14.9381 32.0871 13.8739 32.0759 12.81 32.0499L12.5271 32.0411C12.1809 32.028 11.8348 32.0129 11.4887 31.9959C9.93708 31.923 8.87833 31.678 7.94792 31.3178C6.97473 30.9523 6.09323 30.3784 5.36521 29.6363C4.62298 28.9076 4.04866 28.0257 3.68229 27.0522C3.32208 26.1232 3.07708 25.0645 3.00417 23.5113C2.98792 23.1653 2.97334 22.8192 2.96042 22.473L2.95312 22.1901C2.92625 21.1267 2.9141 20.063 2.91667 18.9992V16.0009C2.9126 14.9372 2.92329 13.8735 2.94875 12.8101L2.95896 12.5272C2.97062 12.199 2.98521 11.8767 3.00271 11.4888C3.07562 9.93571 3.32062 8.87841 3.68083 7.948C4.04704 6.97369 4.62251 6.09157 5.36667 5.36383C6.09451 4.62223 6.97542 4.0484 7.94792 3.68237C8.87833 3.32216 9.93562 3.07716 11.4887 3.00425C11.8767 2.98675 12.2004 2.97216 12.5271 2.9605L12.81 2.95175C13.8734 2.92584 14.9371 2.91466 16.0008 2.91821L18.9992 2.91675ZM17.5 10.2084C15.5661 10.2084 13.7115 10.9766 12.344 12.3441C10.9766 13.7115 10.2083 15.5662 10.2083 17.5001C10.2083 19.434 10.9766 21.2886 12.344 22.6561C13.7115 24.0235 15.5661 24.7917 17.5 24.7917C19.4339 24.7917 21.2885 24.0235 22.656 22.6561C24.0234 21.2886 24.7917 19.434 24.7917 17.5001C24.7917 15.5662 24.0234 13.7115 22.656 12.3441C21.2885 10.9766 19.4339 10.2084 17.5 10.2084ZM17.5 13.1251C18.0745 13.125 18.6435 13.2381 19.1743 13.4578C19.7051 13.6776 20.1875 13.9998 20.5938 14.406C21.0001 14.8122 21.3225 15.2944 21.5424 15.8252C21.7624 16.3559 21.8756 16.9248 21.8757 17.4994C21.8758 18.0739 21.7628 18.6428 21.543 19.1736C21.3232 19.7045 21.001 20.1868 20.5948 20.5932C20.1886 20.9995 19.7064 21.3218 19.1756 21.5418C18.6449 21.7617 18.076 21.875 17.5015 21.8751C16.3411 21.8751 15.2283 21.4141 14.4079 20.5937C13.5874 19.7732 13.1265 18.6604 13.1265 17.5001C13.1265 16.3398 13.5874 15.227 14.4079 14.4065C15.2283 13.586 16.3411 13.1251 17.5015 13.1251M25.1577 8.02091C24.6742 8.02091 24.2106 8.21297 23.8687 8.55483C23.5268 8.8967 23.3348 9.36036 23.3348 9.84383C23.3348 10.3273 23.5268 10.791 23.8687 11.1328C24.2106 11.4747 24.6742 11.6667 25.1577 11.6667C25.6412 11.6667 26.1048 11.4747 26.4467 11.1328C26.7886 10.791 26.9806 10.3273 26.9806 9.84383C26.9806 9.36036 26.7886 8.8967 26.4467 8.55483C26.1048 8.21297 25.6412 8.02091 25.1577 8.02091Z" fill="#F7F7F7"/>
</svg>
