<svg width="38" height="38" viewBox="0 0 38 38" fill="none" xmlns="http://www.w3.org/2000/svg">
<path d="M30.4475 24.1617L26.4258 23.7025C25.953 23.647 25.4736 23.6993 25.0239 23.8556C24.5741 24.0119 24.1657 24.2682 23.8292 24.605L20.9158 27.5183C16.4211 25.2324 12.7677 21.579 10.4817 17.0842L13.4108 14.155C14.0917 13.4742 14.4242 12.5242 14.3133 11.5583L13.8542 7.56834C13.7644 6.79595 13.3937 6.08355 12.8127 5.56677C12.2317 5.04998 11.4809 4.76492 10.7033 4.76584H7.96417C6.175 4.76584 4.68667 6.25417 4.7975 8.04334C5.63667 21.565 16.4508 32.3633 29.9567 33.2025C31.7458 33.3133 33.2342 31.825 33.2342 30.0358V27.2967C33.25 25.6975 32.0467 24.3517 30.4475 24.1617Z" fill="#F7F7F7"/>
</svg>
