<svg width="21" height="21" viewBox="0 0 21 21" fill="none" xmlns="http://www.w3.org/2000/svg">
<path d="M19.6875 10.4999C19.688 10.7227 19.6309 10.9419 19.5217 11.1361C19.4124 11.3303 19.2548 11.4929 19.0641 11.6082L7.245 18.8384C7.04573 18.9604 6.81751 19.027 6.58389 19.0314C6.35028 19.0357 6.11974 18.9776 5.91609 18.863C5.71439 18.7502 5.54636 18.5858 5.42929 18.3865C5.31222 18.1873 5.25034 17.9604 5.25 17.7293V3.27051C5.25034 3.03941 5.31222 2.81258 5.42929 2.61333C5.54636 2.41408 5.71439 2.24961 5.91609 2.13684C6.11974 2.02228 6.35028 1.96416 6.58389 1.96849C6.81751 1.97281 7.04573 2.03943 7.245 2.16144L19.0641 9.39168C19.2548 9.50691 19.4124 9.66953 19.5217 9.86373C19.6309 10.0579 19.688 10.2771 19.6875 10.4999Z" fill="#F7F7F7"/>
</svg>
