<svg width="38" height="38" viewBox="0 0 38 38" fill="none" xmlns="http://www.w3.org/2000/svg">
<path d="M20.5833 14.25H29.2917L20.5833 5.54166V14.25ZM9.5 3.16666H22.1667L31.6667 12.6667V31.6667C31.6667 32.5065 31.333 33.312 30.7392 33.9058C30.1453 34.4997 29.3399 34.8333 28.5 34.8333H9.5C8.66015 34.8333 7.85469 34.4997 7.26083 33.9058C6.66696 33.312 6.33333 32.5065 6.33333 31.6667V6.33332C6.33333 4.57582 7.7425 3.16666 9.5 3.16666ZM22.1667 31.6667V30.0833C22.1667 27.9775 17.9392 26.9167 15.8333 26.9167C13.7275 26.9167 9.5 27.9775 9.5 30.0833V31.6667H22.1667ZM15.8333 19C14.9935 19 14.188 19.3336 13.5942 19.9275C13.0003 20.5213 12.6667 21.3268 12.6667 22.1667C12.6667 23.0065 13.0003 23.812 13.5942 24.4058C14.188 24.9997 14.9935 25.3333 15.8333 25.3333C16.6732 25.3333 17.4786 24.9997 18.0725 24.4058C18.6664 23.812 19 23.0065 19 22.1667C19 21.3268 18.6664 20.5213 18.0725 19.9275C17.4786 19.3336 16.6732 19 15.8333 19Z" fill="#F7F7F7"/>
</svg>
