<svg width="38" height="38" viewBox="0 0 38 38" fill="none" xmlns="http://www.w3.org/2000/svg">
<path fill-rule="evenodd" clip-rule="evenodd" d="M17.4167 4.75C16.1569 4.75 14.9487 5.25045 14.0579 6.14124C13.1671 7.03204 12.6667 8.24022 12.6667 9.5V11.0833H7.91666C6.65689 11.0833 5.4487 11.5838 4.55791 12.4746C3.66711 13.3654 3.16666 14.5736 3.16666 15.8333V28.5C3.16666 29.7598 3.66711 30.968 4.55791 31.8588C5.4487 32.7496 6.65689 33.25 7.91666 33.25H30.0833C31.3431 33.25 32.5513 32.7496 33.4421 31.8588C34.3329 30.968 34.8333 29.7598 34.8333 28.5V15.8333C34.8333 14.5736 34.3329 13.3654 33.4421 12.4746C32.5513 11.5838 31.3431 11.0833 30.0833 11.0833H25.3333V9.5C25.3333 8.24022 24.8329 7.03204 23.9421 6.14124C23.0513 5.25045 21.8431 4.75 20.5833 4.75H17.4167ZM22.1667 11.0833H15.8333V9.5C15.8333 9.08007 16.0001 8.67735 16.2971 8.38041C16.594 8.08348 16.9967 7.91667 17.4167 7.91667H20.5833C21.0033 7.91667 21.406 8.08348 21.7029 8.38041C21.9998 8.67735 22.1667 9.08007 22.1667 9.5V11.0833Z" fill="#F7F7F7"/>
</svg>
