<svg width="35" height="35" viewBox="0 0 35 35" fill="none" xmlns="http://www.w3.org/2000/svg">
<path d="M17.5015 2.91675C25.5558 2.91675 32.0848 9.44571 32.0848 17.5001C32.0848 25.5545 25.5558 32.0834 17.5015 32.0834C14.9243 32.0876 12.3924 31.4055 10.166 30.1074L2.92396 32.0834L4.89563 24.8384C3.59639 22.6114 2.91382 20.0784 2.91813 17.5001C2.91813 9.44571 9.44709 2.91675 17.5015 2.91675ZM12.5315 10.6459L12.2398 10.6576C12.051 10.6691 11.8664 10.7187 11.6973 10.8034C11.5391 10.893 11.3947 11.005 11.2685 11.1359C11.0935 11.3007 10.9944 11.4436 10.8879 11.5822C10.3485 12.2835 10.0581 13.1445 10.0625 14.0292C10.0654 14.7438 10.2521 15.4395 10.5438 16.0899C11.1402 17.4053 12.1217 18.798 13.4167 20.0886C13.7288 20.3992 14.035 20.7113 14.3646 21.0015C15.9737 22.4183 17.8912 23.4399 19.9646 23.9853L20.7929 24.1122C21.0627 24.1267 21.3325 24.1063 21.6038 24.0932C22.0285 24.0713 22.4432 23.9563 22.8185 23.7563C23.0095 23.658 23.1959 23.5509 23.3771 23.4355C23.3771 23.4355 23.4398 23.3947 23.5594 23.3042C23.7563 23.1584 23.8773 23.0549 24.0406 22.8842C24.1617 22.7588 24.2667 22.6115 24.3469 22.4438C24.4606 22.2061 24.5744 21.7526 24.621 21.3749C24.656 21.0861 24.6458 20.9286 24.6415 20.8309C24.6356 20.6749 24.5058 20.513 24.3644 20.4445L23.5156 20.0638C23.5156 20.0638 22.2469 19.5111 21.471 19.1582C21.3899 19.1228 21.3029 19.1025 21.2144 19.0984C21.1146 19.0882 21.0138 19.0994 20.9187 19.1313C20.8236 19.1633 20.7365 19.2152 20.6631 19.2836C20.6558 19.2807 20.5581 19.3638 19.5038 20.6413C19.4432 20.7227 19.3599 20.7841 19.2643 20.8179C19.1687 20.8516 19.0653 20.8562 18.9671 20.8309C18.8721 20.8054 18.779 20.7733 18.6885 20.7347C18.5077 20.6588 18.445 20.6297 18.321 20.5772C17.4841 20.2119 16.7091 19.7184 16.0242 19.1145C15.8404 18.954 15.6698 18.779 15.4948 18.6099C14.9211 18.0604 14.4211 17.4388 14.0073 16.7607L13.9213 16.6222C13.8595 16.5291 13.8095 16.4286 13.7725 16.3232C13.7171 16.1088 13.8615 15.9367 13.8615 15.9367C13.8615 15.9367 14.2158 15.5488 14.3806 15.3388C14.541 15.1347 14.6767 14.9363 14.7642 14.7949C14.9363 14.5178 14.9902 14.2334 14.8998 14.0132C14.4915 13.0157 14.0685 12.0226 13.634 11.0367C13.5479 10.8413 13.2927 10.7013 13.0608 10.6736C12.9821 10.6649 12.9033 10.6561 12.8246 10.6503C12.6287 10.6406 12.4325 10.6425 12.2369 10.6561L12.5315 10.6459Z" fill="#F7F7F7"/>
</svg>
